<?xml version="1.0" encoding="utf-8"?>
<!DOCTYPE svg PUBLIC "-//W3C//DTD SVG 1.1//EN" "http://www.w3.org/Graphics/SVG/1.1/DTD/svg11.dtd">
<svg version="1.1" id="Layer_1" xmlns="http://www.w3.org/2000/svg" xmlns:xlink="http://www.w3.org/1999/xlink" x="0px" y="0px"
	 viewBox="0 0 2006.3616 1421.3302" enable-background="new 0 0 2006.3616 1421.3302" xml:space="preserve">
<g>
	<path fill="#C0272D" d="M1330.2871,1111.4937c-13.5638,2.7261-26.6078,7.0621-38.8361,13.6221
		c-2.0608,1.1057-3.517-0.1196-5.004-0.9282c-13.4692-7.3229-27.9996-11.4917-43.0457-13.4677
		c-24.1001-3.165-47.5225-0.1027-69.9707,9.504c-1.0533,0.4507-2.2322,0.7655-3.105,1.4562
		c-7.1985,5.6969-13.7408,1.8087-20.4482-1.1786c-12.9132-5.7516-26.4136-8.6093-40.5536-10.076
		c-25.4689-2.6425-49.2894,2.1743-71.8718,13.4264c-5.0393,2.5109-8.3102,0.041-11.6432-1.5996
		c-12.363-6.0846-25.4665-9.5138-38.9179-11.525c-17.7953-2.6609-35.4532-1.1364-52.8218,3.5228
		c-9.1682,2.4594-18.1091,5.559-26.3889,10.2932c-2.0757,1.1868-3.8984,1.052-5.9019-0.097
		c-13.449-7.7136-28.1882-11.7585-43.3484-13.7109c-26.528-3.4164-52.1524,0.2991-76.1921,12.4634
		c-3.8849,1.9656-6.8532,2.0951-10.772,0.1746c-14.726-7.2172-30.208-11.3276-46.7031-12.9675
		c-21.1133-2.0991-41.0918,1.2795-60.7739,8.2523c-0.761,0.2697-1.5099,0.5781-2.2502,0.9011
		c-4.5914,2.0023-9.2016,5.6324-13.761,5.568c-4.5818-0.0643-8.9964-4.1124-13.6886-5.869
		c-9.3903-3.5156-18.978-6.2218-28.9776-7.7667c-9.8398-1.5203-19.6554-2.5714-29.5297-1.7584
		c-18.3623,1.5118-35.9977,6.0096-52.4846,14.4342c-2.4112,1.2319-3.9883,1.0333-6.5791-0.1826
		c-15.2027-7.1337-31.0064-11.8535-47.9573-13.5571c-22.3629-2.2474-43.819,0.6061-64.0948,9.5713
		c-9.1615,4.0509-16.1495,4.5081-25.4845,0.084c-17.6058-8.3435-36.8228-11.1608-56.3854-10.4263
		c-19.4623,0.7303-37.9502,5.4213-55.297,14.3236c-2.4179,1.241-4.1938,1.467-6.7911,0.1135
		c-11.2649-5.8708-23.1819-10.1899-35.731-12.1646c-4.6811-0.7368-5.1458-2.5792-4.531-6.4924
		c8.4766-53.9486,19.6936-107.2914,34.8436-159.7865c28.5409-98.895,69.5387-192.1575,125.8434-278.4957
		c71.1125-109.0446,161.4604-199.1394,268.8887-272.3055c91.6017-62.3871,190.8069-109.3715,295.4297-145.3511
		c70.4207-24.2175,142.2974-42.976,215.2831-57.515c51.7549-10.3098,103.8844-18.3224,156.2993-24.5513
		c61.2008-7.2731,122.5934-11.9646,184.1512-14.647c56.4336-2.4591,112.8949-2.7703,169.3644-1.8747
		c4.6168,0.0732,6.3719-0.4562,5.4258-5.7864c-1.0909-6.1464,2.1166-11.4904,7.5057-14.0859
		c9.2548-4.4574,12.9924-10.8188,12.1951-21.2774c-0.5988-7.8523,4.6423-13.8124,12.8086-14.8391
		c10.014-1.2589,15.45-5.7611,18.3601-15.4897c2.389-7.9858,9.1267-11.6009,17.4093-9.8635
		c9.5029,1.9935,16.2129,0.1094,22.222-8.0739c5.2612-7.1646,13.2141-8.2432,21.0128-3.1823
		c7.7341,5.0192,14.0238,4.9929,21.7921,0.1145c8.5096-5.3439,15.8212-4.0357,22.1115,4.0263
		c5.4156,6.9411,11.0197,8.9316,19.6459,7.3014c10.9525-2.0698,16.5369,1.6164,20.1904,12.278
		c2.4656,7.1954,6.1096,11.0822,14.1482,12.148c11.698,1.551,15.3706,6.5853,16.1271,18.4361
		c0.0319,0.4979,0.2133,1.0072,0.1481,1.4872c-1.0237,7.5317,2.7631,11.656,9.1416,15.1658
		c10.5001,5.7777,12.886,12.165,8.5184,23.3425c-2.8574,7.3127-1.8607,12.538,3.3105,18.4276
		c7.7855,8.867,7.8303,16.0463-0.0685,24.9141c-5.4595,6.1292-5.8896,11.6237-3.0966,18.9262
		c4.0319,10.5415,1.6738,17.4739-8.3051,22.5445c-7.5636,3.8432-9.7968,9.1478-9.7915,17.0368
		c0.0076,11.4163-4.2141,16.4195-15.6228,18.2308c-7.5475,1.1983-11.9667,4.312-14.4447,11.8884
		c-3.7472,11.4579-10.2587,15.1392-21.8937,12.5907c-7.3489-1.6097-12.0789,0.1439-16.7074,6.0148
		c-7.6079,9.6498-14.7596,10.8961-25.3043,4.4251c-6.313-3.8741-11.3311-3.9888-17.7424-0.0782
		c-10.923,6.6624-17.631,5.3833-25.6385-4.621c-4.5564-5.6927-9.2717-7.2186-16.328-5.7084
		c-11.1775,2.392-16.9965-0.8173-21.5317-11.1027c-1.9655-4.4579-3.5419-1.6861-5.2559-0.3059
		c-20.6355,16.6165-42.0068,32.2274-64.0106,46.978c-43.8817,29.4167-90.062,54.829-137.0739,78.8063
		c-44.5856,22.74-89.9554,43.9758-133.2472,69.2025c-29.7257,17.3216-57.968,36.6563-82.3735,61.162
		c-36.2555,36.4042-57.2101,80.3619-64.9607,130.9246c-6.1874,40.3661-4.6162,80.6819,0.6796,120.952
		c11.0774,84.2358,35.8967,164.9225,63.7693,244.7839C1312.1586,1062.9117,1321.3171,1086.9845,1330.2871,1111.4937z
		 M1745.8451,72.8718c-9.7227-1.2003-14.0812,2.2351-16.6548,8.4517c-1.0171,2.457-2.0306,4.9188-2.9333,7.419
		c-1.418,3.9271-3.9482,6.4351-8.218,7.06c-2.1316,0.312-4.2338,0.841-6.3376,1.3228
		c-10.0275,2.2962-13.7787,6.0757-13.1992,16.1787c0.5215,9.0934-2.8203,14.4785-10.7633,18.6257
		c-9.0791,4.7402-11.2269,10.1553-7.2621,19.434c3.7472,8.7689,2.7229,15.6416-4.1708,21.9025
		c-0.2438,0.2214-0.4331,0.5063-0.6316,0.7735c-4.8722,6.5566-5.5979,12.8236,0.0586,18.5889
		c7.5187,7.6632,8.271,15.1449,4.1661,24.6791c-3.0851,7.1657-0.6266,12.2098,5.9338,16.679
		c2.3353,1.5909,4.7067,3.1536,7.1827,4.5075c3.8058,2.0809,5.2788,5.3365,5.2809,9.4748c0.0009,1.9993-0.0403,4,0.0195,5.9976
		c0.2943,9.8331,3.5625,14.396,13.2185,15.6333c9.2343,1.1833,15.163,5.1136,16.9386,14.4846
		c0.0604,0.3185,0.2607,0.6102,0.394,0.9152c3.4545,7.9035,7.7382,11.2884,15.9595,9.3309
		c10.3645-2.4677,17.3298,0.3604,23.5657,8.7413c4.5928,6.1729,11.0061,7.315,17.3394,3.0438
		c8.9113-6.0098,16.5895-6.0431,25.5155,0.0468c6.3171,4.31,12.0225,2.5769,17.4846-3.0298c1.2762-1.31,2.5962-2.6223,3.627-4.1187
		c3.5619-5.1717,8.2701-6.3287,14.3535-5.3929c15.5333,2.3896,17.5044,1.0459,23.3737-13.7883
		c0.1224-0.3094,0.2284-0.6266,0.3237-0.9456c1.4509-4.8512,4.8357-7.3564,9.7249-8.0994c1.8058-0.2744,3.5994-0.645,5.385-1.0343
		c9.6802-2.11,13.3053-5.9247,12.8315-15.8779c-0.4241-8.9102,2.6068-14.5363,10.6687-18.7176
		c9.3986-4.8746,11.2789-10.0851,7.3823-19.7953c-3.3098-8.2472-2.462-14.5412,3.6862-21.2037
		c7.0883-7.6813,7.1074-13.532,0.1047-21.18c-6.0754-6.6353-7.1875-12.8938-3.8225-21.1956
		c3.9734-9.8026,2.1188-15.0358-7.2086-19.8588c-8.2523-4.267-11.2969-10.1079-10.8065-19.186
		c0.5049-9.3457-3.1608-13.261-12.2242-15.3675c-2.2686-0.5272-4.5261-1.1813-6.8273-1.4701
		c-4.5024-0.565-7.1493-3.1841-8.6808-7.2311c-0.7061-1.866-1.3972-3.7384-2.1431-5.5885
		c-3.6312-9.0068-7.322-12.2503-16.7106-10.2531c-10.5186,2.2377-17.2533-0.9887-23.4327-9.1719
		c-4.5062-5.9671-10.2365-7.1115-16.4419-3.015c-9.3843,6.1948-17.6776,6.3562-26.8912-0.1223
		c-5.176-3.6396-11.4338-2.8315-15.3682,2.1691C1762.6237,71.6005,1754.95,77.2057,1745.8451,72.8718z"/>
	<path fill="#C0272D" d="M198.2636,1122.1664c23.0809,0.2002,43.3354,5.4005,61.984,16.3263
		c2.8271,1.6564,4.8654,1.5596,7.6552-0.0414c14.0641-8.0708,29.1-12.8271,45.3175-14.9916
		c27.2599-3.6384,52.1977,2.3625,75.8466,15.4419c2.8268,1.5635,5.0786,0.5168,7.3347-0.7932
		c16.9311-9.8308,35.183-14.7051,54.7306-15.5189c24.0242-1.0002,46.246,4.8203,66.9628,16.6909
		c2.0758,1.1895,3.1139,0.4988,4.6275-0.3796c11.1762-6.4872,23.0817-11.1536,35.748-13.6825
		c12.9852-2.5925,25.9924-3.0188,39.2952-1.8027c17.5028,1.6002,33.2797,7.5393,48.4379,15.7836
		c1.8043,0.9814,2.7933,0.8446,4.6224-0.2114c22.7114-13.1108,47.35-18.4476,73.3239-16.1178
		c17.1891,1.5417,33.6642,6.4264,48.5822,15.5844c2.655,1.63,4.6169,1.6234,7.7274-0.1448
		c13.5705-7.7141,28.1205-12.7512,43.7584-14.7212c27.7278-3.4928,53.704,1.3121,77.9055,15.3679
		c2.5225,1.465,4.7014,0.6112,6.9004-0.6588c17.3682-10.0294,36.0487-15.0383,56.1274-15.7339
		c23.6754-0.8198,45.4897,5.1102,65.9185,16.6487c2.0173,1.1395,3.0409,0.6357,4.6117-0.2584
		c11.5162-6.5573,23.7017-11.6348,36.7104-14.0597c28.9423-5.3951,56.7805-2.051,82.8335,12.2828
		c4.4409,2.4432,7.7563,2.6595,12.5088-0.0657c21.4927-12.3247,45.0605-16.3163,69.4591-14.2552
		c17.2552,1.4576,33.7424,6.4176,48.677,15.6379c2.6544,1.6388,5.2153,1.5071,7.8641-0.0234
		c69.686-40.2651,159.1671-2.6837,179.0354,76.7299c17.405,69.5675-30.9109,140.563-101.9467,149.6167
		c-27.3248,3.4827-53.0294-1.2959-76.9045-15.1194c-2.8712-1.6625-4.8545-1.3894-7.6117,0.1079
		c-40.1427,21.797-80.3694,21.7975-120.502-0.0192c-2.8008-1.5225-4.7925-1.6134-7.6321-0.0654
		c-40.2897,21.9626-80.6593,21.8724-120.9183-0.0856c-2.6847-1.4644-4.5259-1.4182-7.1779,0.025
		c-40.4719,22.0245-80.9996,21.9956-121.3944-0.2c-2.5871-1.4216-4.3102-1.165-6.712,0.1411
		c-40.4653,22.0076-80.9851,22.0941-121.4317-0.0476c-2.429-1.3297-4.1436-1.4617-6.7025-0.0634
		c-40.4052,22.0786-80.9302,22.265-121.3864,0.1312c-2.6643-1.4574-4.5101-1.4299-7.1646,0.0188
		c-40.4677,22.0869-81.004,21.9204-121.4233-0.1277c-2.5396-1.3854-4.227-1.2979-6.6842,0.0452
		c-40.4504,22.1083-80.9807,22.0815-121.4435,0.0305c-2.4269-1.3226-4.1255-1.5228-6.6879-0.1176
		c-40.5983,22.2675-81.2851,22.2006-121.8601-0.0577c-2.6269-1.4412-4.3386-1.0634-6.6919,0.2646
		c-72.0254,40.6454-160.6682,1.6333-179.525-78.9602c-15.353-65.6178,28.3788-133.1504,94.5059-146.0586
		C183.5202,1123.0889,191.6276,1122.4958,198.2636,1122.1664z"/>
	<path fill="#FBF5F5" d="M1745.8451,72.8718c9.1049,4.3339,16.7786-1.2713,23.7903-10.1834
		c3.9343-5.0006,10.1921-5.8087,15.3682-2.1691c9.2136,6.4785,17.507,6.3171,26.8912,0.1223
		c6.2054-4.0964,11.9357-2.9521,16.4419,3.015c6.1794,8.1832,12.9142,11.4096,23.4327,9.1719
		c9.3885-1.9973,13.0793,1.2463,16.7106,10.2531c0.7458,1.8501,1.437,3.7225,2.1431,5.5885
		c1.5315,4.047,4.1783,6.6661,8.6808,7.2311c2.3011,0.2888,4.5587,0.9429,6.8273,1.4701
		c9.0635,2.1064,12.7291,6.0217,12.2242,15.3675c-0.4904,9.0781,2.5542,14.919,10.8065,19.186
		c9.3274,4.823,11.182,10.0562,7.2086,19.8588c-3.365,8.3018-2.2529,14.5604,3.8225,21.1956
		c7.0027,7.6479,6.9835,13.4987-0.1047,21.18c-6.1482,6.6625-6.996,12.9565-3.6862,21.2037
		c3.8966,9.7101,2.0162,14.9207-7.3823,19.7953c-8.0619,4.1813-11.0928,9.8073-10.6687,18.7176
		c0.4738,9.9531-3.1514,13.7679-12.8315,15.8779c-1.7856,0.3893-3.5792,0.7599-5.385,1.0343
		c-4.8892,0.743-8.2739,3.2482-9.7249,8.0994c-0.0953,0.319-0.2013,0.6361-0.3237,0.9456
		c-5.8693,14.8342-7.8403,16.1779-23.3737,13.7883c-6.0834-0.9357-10.7916,0.2213-14.3535,5.3929
		c-1.0308,1.4965-2.3507,2.8087-3.627,4.1187c-5.4622,5.6067-11.1675,7.3398-17.4846,3.0298
		c-8.926-6.0899-16.6042-6.0566-25.5155-0.0468c-6.3333,4.2712-12.7466,3.1292-17.3394-3.0438
		c-6.2358-8.3809-13.2012-11.209-23.5657-8.7413c-8.2213,1.9575-12.505-1.4274-15.9595-9.3309
		c-0.1333-0.3051-0.3336-0.5967-0.394-0.9152c-1.7756-9.371-7.7043-13.3013-16.9386-14.4846
		c-9.656-1.2373-12.9242-5.8002-13.2185-15.6333c-0.0598-1.9976-0.0187-3.9983-0.0195-5.9976
		c-0.0021-4.1383-1.4751-7.3939-5.2809-9.4748c-2.4761-1.3539-4.8474-2.9167-7.1827-4.5075
		c-6.5604-4.4692-9.0189-9.5133-5.9338-16.679c4.1049-9.5343,3.3525-17.0159-4.1661-24.6791
		c-5.6565-5.7653-4.9308-12.0323-0.0586-18.5889c0.1985-0.2673,0.3878-0.5521,0.6316-0.7735
		c6.8937-6.2609,7.918-13.1337,4.1708-21.9025c-3.9648-9.2786-1.817-14.6937,7.2621-19.434
		c7.943-4.1472,11.2848-9.5323,10.7633-18.6257c-0.5795-10.103,3.1718-13.8825,13.1992-16.1787
		c2.1039-0.4818,4.2061-1.0108,6.3376-1.3228c4.2698-0.625,6.8-3.1329,8.218-7.06c0.9027-2.5002,1.9163-4.962,2.9333-7.419
		C1731.7639,75.107,1736.1224,71.6715,1745.8451,72.8718z M1853.2043,288.0113c5.5308,0.2038,7.3657-0.7997,9.2693-7.2934
		c3.0806-10.5088,9.4136-16.1585,20.4973-17.2461c7.5876-0.7445,9.5669-3.1226,9.0156-10.9631
		c-0.75-10.6675,3.3326-17.6816,12.8052-22.5184c7.5585-3.8594,8.3555-6.0018,5.0819-13.594
		c-4.2056-9.7541-2.8754-17.7737,4.4347-25.545c5.7948-6.1606,5.8043-8.3967,0.113-14.5085
		c-7.375-7.9198-8.793-16.0833-4.4437-26.0054c3.1763-7.2465,2.0397-9.1398-4.866-13.3587
		c-0.8512-0.5201-1.7181-1.0203-2.6069-1.4722c-7.2688-3.6955-10.5271-9.5001-10.4604-17.7548
		c0.1012-12.51-0.3965-12.8032-12.6942-15.0702c-0.6543-0.1206-1.3151-0.2082-1.9678-0.336
		c-6.2212-1.2178-10.4656-4.7793-12.7017-10.7216c-0.7611-2.0227-1.4886-4.0596-2.3097-6.058
		c-2.683-6.5311-4.4937-7.8539-11.4756-6.1566c-10.3419,2.5142-18.3751,0.2734-24.9606-8.5677
		c-5.2129-6.9982-7.3384-7.3004-14.6722-2.5792c-8.7593,5.639-16.7939,5.6371-25.5355,0.0336
		c-7.369-4.7237-9.5071-4.4667-14.6847,2.4813c-6.4165,8.6107-14.174,11.1113-24.4333,8.7397
		c-7.8907-1.824-9.8883-0.7261-12.2471,6.9704c-3.0713,10.0206-8.9584,15.5791-19.6259,16.9433
		c-9.0188,1.1533-10.123,2.7024-9.7128,11.7911c0.4503,9.9782-3.3191,16.7037-12.1991,21.3954
		c-8.6172,4.5528-9.0376,5.9744-5.3518,15.0993c3.5703,8.8387,2.5308,16.2152-3.9696,23.3918
		c-6.8314,7.5422-6.5236,8.9699-0.0457,16.9677c0.3145,0.3884,0.6173,0.7894,0.9625,1.1492
		c5.5415,5.7762,6.5834,12.3482,3.8445,19.8029c-4.0868,11.1226-5.5763,11.7248,6.7242,18.8044
		c0.1443,0.083,0.2759,0.1888,0.4229,0.266c6.3595,3.3399,9.438,8.6477,9.4839,15.7834
		c0.0923,14.3223-0.3009,13.929,14.3546,16.7177c6.4547,1.2282,10.8436,4.7546,13.0778,10.9507
		c0.7328,2.0328,1.4536,4.0739,2.291,6.0645c2.5598,6.0854,4.0189,6.907,10.7223,6.1296c1.4871-0.1724,2.9794-0.3616,4.4417-0.6732
		c7.7201-1.6452,13.8854,0.5081,19.0916,6.65c8.2841,9.7731,8.5522,9.7889,19.6901,3.4609
		c6.7522-3.8361,13.035-3.8562,19.7843-0.0375c11.1499,6.3087,11.3724,6.2833,20.0015-3.7473
		c4.9766-5.7852,10.8843-7.8538,18.2391-6.4258C1849.0377,287.4471,1851.5198,287.7505,1853.2043,288.0113z"/>
	<path fill="#C0272D" d="M1853.2043,288.0113c-1.6846-0.2609-4.1666-0.5642-6.6154-1.0396
		c-7.3549-1.428-13.2626,0.6407-18.2391,6.4258c-8.629,10.0305-8.8516,10.056-20.0015,3.7473
		c-6.7493-3.8187-13.0321-3.7986-19.7843,0.0375c-11.1378,6.3279-11.406,6.3121-19.6901-3.4609
		c-5.2062-6.142-11.3715-8.2952-19.0916-6.65c-1.4623,0.3116-2.9546,0.5007-4.4417,0.6732
		c-6.7034,0.7773-8.1625-0.0442-10.7223-6.1296c-0.8374-1.9906-1.5582-4.0317-2.291-6.0645
		c-2.2341-6.1962-6.623-9.7225-13.0778-10.9507c-14.6555-2.7886-14.2623-2.3953-14.3546-16.7177
		c-0.0459-7.1356-3.1244-12.4435-9.4839-15.7834c-0.147-0.0772-0.2786-0.183-0.4229-0.266
		c-12.3005-7.0796-10.811-7.6818-6.7242-18.8044c2.7389-7.4547,1.697-14.0267-3.8445-19.8029
		c-0.3452-0.3598-0.6481-0.7608-0.9625-1.1492c-6.4779-7.9978-6.7858-9.4255,0.0457-16.9677
		c6.5004-7.1767,7.5399-14.5531,3.9696-23.3918c-3.6858-9.1249-3.2654-10.5464,5.3518-15.0993
		c8.88-4.6917,12.6494-11.4172,12.1991-21.3954c-0.4103-9.0887,0.694-10.6378,9.7128-11.7911
		c10.6675-1.3641,16.5546-6.9226,19.6259-16.9433c2.3588-7.6966,4.3563-8.7944,12.2471-6.9704
		c10.2594,2.3716,18.0168-0.1291,24.4333-8.7397c5.1776-6.948,7.3157-7.205,14.6847-2.4813
		c8.7416,5.6035,16.7762,5.6054,25.5355-0.0336c7.3339-4.7212,9.4594-4.419,14.6722,2.5792
		c6.5854,8.841,14.6187,11.0818,24.9606,8.5677c6.9819-1.6973,8.7926-0.3745,11.4756,6.1566
		c0.821,1.9984,1.5486,4.0353,2.3097,6.058c2.2361,5.9424,6.4805,9.5038,12.7017,10.7216c0.6527,0.1278,1.3135,0.2154,1.9678,0.336
		c12.2977,2.267,12.7954,2.5602,12.6942,15.0702c-0.0667,8.2548,3.1917,14.0593,10.4604,17.7548
		c0.8888,0.4519,1.7557,0.9521,2.6069,1.4722c6.9056,4.2189,8.0422,6.1123,4.866,13.3587
		c-4.3492,9.9221-2.9313,18.0856,4.4437,26.0054c5.6913,6.1118,5.6818,8.3479-0.113,14.5085
		c-7.3101,7.7713-8.6403,15.7909-4.4347,25.545c3.2736,7.5922,2.4766,9.7346-5.0819,13.594
		c-9.4725,4.8368-13.5552,11.8509-12.8052,22.5184c0.5513,7.8405-1.428,10.2186-9.0156,10.9631
		c-11.0837,1.0876-17.4167,6.7373-20.4973,17.2461C1860.5701,287.2116,1858.7351,288.2151,1853.2043,288.0113z"/>
</g>
</svg>
